<?xml version="1.0" standalone="no"?>
<!DOCTYPE svg PUBLIC "-//W3C//DTD SVG 20010904//EN"
 "http://www.w3.org/TR/2001/REC-SVG-20010904/DTD/svg10.dtd">
<svg version="1.0" xmlns="http://www.w3.org/2000/svg"
 width="816.000000pt" height="816.000000pt" viewBox="0 0 816.000000 816.000000"
 preserveAspectRatio="xMidYMid meet">
<metadata>
Created by potrace 1.14, written by Peter Selinger 2001-2017
</metadata>
<g transform="translate(0.000000,816.000000) scale(0.100000,-0.100000)"
fill="#000000" stroke="none">
<path d="M2175 7323 c4 -95 12 -173 21 -213 3 -14 8 -36 11 -50 8 -49 42 -176
58 -220 9 -25 18 -54 21 -64 6 -31 105 -226 114 -226 5 0 11 -8 14 -17 6 -16
29 -45 105 -128 39 -43 106 -103 176 -158 33 -27 67 -54 76 -61 9 -8 20 -15
25 -17 20 -9 114 -72 111 -75 -1 -2 -23 2 -47 7 -25 6 -56 13 -70 15 -14 3
-41 9 -60 14 -19 5 -57 12 -85 16 -27 3 -52 8 -55 9 -17 11 -170 20 -325 20
-184 0 -281 -7 -385 -30 -14 -3 -41 -8 -60 -12 -19 -4 -37 -8 -40 -8 -38 -8
-77 -19 -85 -24 -5 -3 -12 -6 -15 -6 -29 -4 -110 -31 -110 -37 0 -4 -9 -8 -20
-8 -11 0 -28 -4 -38 -9 -36 -20 -174 -81 -183 -81 -5 0 -9 -4 -9 -10 0 -5 -9
-10 -19 -10 -11 0 -22 -4 -25 -9 -4 -5 -34 -25 -69 -44 -220 -124 -543 -403
-672 -582 -11 -15 -25 -32 -30 -39 -24 -26 -85 -117 -85 -125 0 -5 -4 -11 -8
-13 -9 -3 -102 -166 -105 -183 -1 -5 -8 -16 -15 -23 -6 -7 -12 -21 -12 -31 0
-9 -5 -22 -12 -29 -11 -11 -70 -167 -71 -189 0 -7 -4 -13 -8 -13 -3 0 -9 -12
-12 -27 -9 -50 -18 -86 -22 -93 -2 -4 -7 -22 -10 -41 -3 -19 -10 -50 -15 -69
-11 -45 -23 -125 -35 -243 -8 -78 -8 -329 -1 -402 4 -33 9 -80 11 -105 7 -66
14 -111 40 -240 3 -14 7 -37 10 -52 3 -15 10 -40 16 -55 6 -15 10 -28 9 -28
-4 0 16 -69 45 -160 64 -194 140 -369 251 -571 41 -76 196 -313 251 -383 105
-136 147 -188 202 -251 77 -86 259 -268 315 -314 21 -17 50 -42 66 -56 15 -14
39 -34 54 -45 15 -11 42 -32 59 -47 18 -15 37 -28 44 -28 6 0 13 -4 15 -9 4
-11 184 -131 198 -131 5 0 10 -3 10 -7 0 -5 26 -21 58 -38 31 -16 59 -32 62
-35 12 -12 90 -50 104 -50 9 0 16 -4 16 -9 0 -5 17 -16 38 -24 20 -8 62 -26
92 -39 50 -23 86 -38 100 -43 3 -1 14 -5 25 -10 76 -30 142 -55 148 -55 3 0
18 -5 34 -12 15 -6 37 -13 48 -15 11 -1 29 -7 40 -12 21 -10 233 -67 275 -75
14 -2 32 -7 40 -10 8 -3 31 -8 50 -11 19 -4 53 -10 75 -14 127 -25 289 -51
355 -56 19 -2 49 -5 65 -8 57 -10 148 -19 224 -23 42 -2 76 -4 76 -5 0 -6 248
-13 500 -13 279 0 420 4 585 20 196 18 253 24 300 34 52 10 134 23 170 26 14
1 25 3 25 4 0 1 9 4 20 6 24 3 40 7 160 34 50 11 99 23 111 25 11 3 68 19 125
35 57 17 109 32 114 34 14 4 27 9 130 46 123 44 196 76 350 152 110 54 194 98
210 110 29 23 87 58 95 58 6 0 10 5 10 10 0 6 6 10 13 10 6 0 23 10 37 21 14
11 41 31 61 43 123 81 355 286 489 433 89 97 112 124 183 213 87 110 77 97
117 155 19 28 37 52 40 55 3 3 19 25 35 50 16 25 34 48 40 52 5 4 7 8 2 8 -4
0 8 21 26 48 30 43 44 66 100 162 43 73 135 260 129 260 -4 0 -2 4 4 8 10 7
44 90 43 106 0 5 3 12 8 15 8 6 31 62 38 92 2 8 10 32 19 53 9 21 18 48 20 60
2 11 11 41 19 66 18 53 34 113 41 155 3 17 10 45 15 63 5 17 8 32 6 32 -3 0
-1 10 4 23 5 12 12 47 15 78 4 31 9 67 11 80 18 86 24 381 11 514 -5 44 -9 91
-11 105 -7 79 -59 293 -96 405 -28 80 -129 299 -176 380 -64 110 -183 264
-288 374 -83 87 -328 299 -359 310 -6 2 -13 7 -16 10 -10 12 -101 71 -109 71
-5 0 -11 3 -13 8 -7 15 -245 137 -353 180 -117 47 -320 99 -460 117 -22 3 -49
7 -60 9 -11 3 -24 5 -28 5 -4 1 3 12 17 26 96 96 269 357 279 422 1 10 5 23 9
28 6 11 27 84 35 125 10 50 2 164 -12 178 -2 3 -16 -3 -30 -12 -14 -9 -25 -14
-25 -11 0 4 -12 -2 -27 -13 -68 -48 -431 -239 -445 -234 -5 1 -8 -3 -8 -8 0
-6 -4 -10 -9 -10 -5 0 -38 -13 -73 -29 -35 -16 -97 -43 -138 -60 -41 -18 -84
-36 -95 -41 -21 -10 -188 -73 -240 -91 -16 -6 -39 -15 -50 -19 -33 -14 -262
-86 -380 -120 -106 -30 -125 -35 -162 -44 -179 -42 -247 -56 -253 -54 -5 2 20
62 55 133 35 72 63 130 63 130 -1 0 70 148 153 320 29 61 54 116 55 123 1 8
10 22 18 31 9 10 16 21 16 26 0 5 22 55 50 111 27 56 50 107 50 113 0 6 5 11
10 11 6 0 10 6 10 13 0 6 16 44 34 82 19 39 33 71 32 73 -4 4 -828 4 -832 0
-1 -2 -6 -19 -9 -38 -3 -19 -10 -53 -15 -75 -5 -22 -7 -41 -5 -44 3 -2 0 -10
-6 -18 -6 -7 -9 -13 -6 -13 3 0 1 -15 -4 -32 -11 -35 -12 -39 -24 -103 -5 -22
-9 -44 -11 -50 -3 -14 -52 -243 -59 -280 -8 -39 -13 -60 -15 -60 -1 0 -3 -9
-5 -20 -2 -18 -6 -37 -19 -100 -2 -11 -16 -72 -30 -135 -14 -63 -26 -123 -26
-132 0 -10 -7 -18 -16 -18 -19 0 -227 100 -232 112 -2 4 -7 8 -12 8 -7 0 -78
43 -238 145 -26 17 -92 60 -146 98 -54 37 -102 67 -106 67 -5 0 -10 4 -12 8
-1 4 -48 39 -103 77 -55 38 -104 73 -110 78 -12 9 -174 126 -205 147 -13 8
-28 21 -36 28 -7 6 -17 12 -23 12 -6 0 -11 4 -11 8 0 4 -13 16 -30 25 -16 10
-35 23 -42 30 -7 7 -42 33 -78 57 -36 24 -67 46 -70 49 -3 3 -48 35 -100 71
-52 35 -96 68 -98 72 -2 4 -10 8 -18 8 -8 0 -14 3 -14 8 0 7 -62 52 -72 52 -4
0 -5 -39 -3 -87z"/>
</g>
</svg>
