<svg xmlns="http://www.w3.org/2000/svg" xmlns:xlink="http://www.w3.org/1999/xlink" width="1080" zoomAndPan="magnify" viewBox="0 0 810 809.999993" height="1080" preserveAspectRatio="xMidYMid meet" version="1.0"><rect x="-81" width="972" fill="rgb(100%, 100%, 100%)" y="-80.999999" height="971.999992" fill-opacity="1"/><rect x="-81" width="972" fill="rgb(100%, 100%, 100%)" y="-80.999999" height="971.999992" fill-opacity="1"/><rect x="-81" width="972" fill="rgb(100%, 100%, 100%)" y="-80.999999" height="971.999992" fill-opacity="1"/><path fill="rgb(59.609985%, 74.899292%, 50.979614%)" d="M 409.492188 -6.4375 C 412.21875 -3.5625 454.425781 39.261719 498.785156 39.261719 L 498.785156 39.40625 L 625.695312 39.40625 C 673.929688 39.40625 713.265625 76.914062 716.566406 124.339844 C 716.710938 125.347656 716.710938 126.355469 716.710938 127.359375 C 716.855469 128.507812 716.855469 129.515625 716.855469 130.664062 L 716.855469 557.351562 C 716.855469 558.503906 716.710938 559.507812 716.710938 560.660156 C 716.710938 561.664062 716.566406 562.671875 716.566406 563.675781 C 713.410156 611.101562 673.929688 648.613281 625.695312 648.613281 L 498.785156 648.613281 C 454.425781 648.613281 412.21875 691.582031 409.492188 694.3125 C 406.765625 691.582031 364.558594 648.613281 320.199219 648.613281 L 320.199219 648.46875 L 193.289062 648.46875 C 145.054688 648.46875 105.71875 610.957031 102.417969 563.53125 C 102.273438 562.527344 102.273438 561.519531 102.273438 560.515625 C 102.128906 559.363281 102.128906 558.359375 102.128906 557.210938 L 102.128906 130.519531 C 102.128906 129.371094 102.273438 128.367188 102.273438 127.214844 C 102.273438 126.210938 102.417969 125.203125 102.417969 124.199219 C 105.574219 76.773438 145.054688 39.261719 193.289062 39.261719 L 320.199219 39.261719 C 364.558594 39.261719 406.765625 -3.5625 409.492188 -6.4375 " fill-opacity="1" fill-rule="nonzero"/><path fill="rgb(100%, 100%, 100%)" d="M 409.492188 -12.847656 C 412.21875 -9.972656 454.425781 32.851562 498.785156 32.851562 L 498.785156 32.996094 L 625.695312 32.996094 C 673.929688 32.996094 713.265625 70.503906 716.566406 117.929688 C 716.710938 118.9375 716.710938 119.945312 716.710938 120.949219 C 716.855469 122.097656 716.855469 123.105469 716.855469 124.253906 L 716.855469 550.941406 C 716.855469 552.09375 716.710938 553.097656 716.710938 554.25 C 716.710938 555.253906 716.566406 556.261719 716.566406 557.265625 C 713.410156 604.691406 673.929688 642.203125 625.695312 642.203125 L 498.785156 642.203125 C 454.425781 642.203125 412.21875 685.171875 409.492188 687.902344 C 406.765625 685.171875 364.558594 642.203125 320.199219 642.203125 L 320.199219 642.058594 L 193.289062 642.058594 C 145.054688 642.058594 105.71875 604.546875 102.417969 557.121094 C 102.273438 556.117188 102.273438 555.109375 102.273438 554.105469 C 102.128906 552.957031 102.128906 551.949219 102.128906 550.800781 L 102.128906 124.109375 C 102.128906 122.960938 102.273438 121.957031 102.273438 120.804688 C 102.273438 119.800781 102.417969 118.792969 102.417969 117.789062 C 105.574219 70.363281 145.054688 32.851562 193.289062 32.851562 L 320.199219 32.851562 C 364.558594 32.851562 406.765625 -9.972656 409.492188 -12.847656 " fill-opacity="1" fill-rule="nonzero"/><path fill="rgb(100%, 100%, 100%)" d="M 81 13.082031 L 1246.957031 13.082031 L 1246.957031 607.605469 L 81 607.605469 L 81 13.082031 " fill-opacity="1" fill-rule="nonzero"/></svg>