<?xml version="1.0" encoding="utf-8"?>
<!-- Generator: Adobe Illustrator 25.2.3, SVG Export Plug-In . SVG Version: 6.00 Build 0)  -->
<svg version="1.1" id="Layer_1" xmlns="http://www.w3.org/2000/svg" xmlns:xlink="http://www.w3.org/1999/xlink" x="0px" y="0px"
	 viewBox="0 0 50 31" style="enable-background:new 0 0 50 31;" xml:space="preserve">
<style type="text/css">
	.st0{fill:#1C3A2C;}
	.st1{fill:#FFFFD9;}
	.st2{fill:none;stroke:#FFFFD9;stroke-width:2.1;stroke-linecap:round;stroke-linejoin:round;stroke-miterlimit:10;}
</style>
<path class="st0" d="M7.4,29.3c-2.2,0-4-1.5-5.3-2.5L2,26.7c-0.3-0.3-0.5-0.6-0.5-0.9c0-0.6,0.5-1.1,1.1-1.1h1.2c0.5,0,1-0.4,1-0.9
	C5.6,14.3,13,6.6,22.3,5.3c0.3,0,0.6-0.2,0.7-0.5c0.2-0.3,0.2-0.6,0-0.9c-0.1-0.3-0.2-0.6-0.2-0.9c0-1.2,1-2.1,2.1-2.1
	s2.1,1,2.1,2.1c0,0.3-0.1,0.6-0.2,0.9c-0.1,0.3-0.1,0.6,0,0.9c0.2,0.3,0.4,0.5,0.7,0.5c9.3,1.3,16.6,9,17.4,18.4
	c0,0.5,0.5,0.9,1,0.9h0.7c0.5,0,0.9,0.3,1,0.7s0,0.9-0.3,1.2c-0.2,0.2-0.4,0.3-0.6,0.5c-1,0.9-2.1,1.8-3.4,2.1
	c-0.5,0.1-1,0.1-1.4,0.1H7.4z"/>
<g>
	<g>
		<path class="st1" d="M46.8,26.1c-1,0.8-2.2,2.1-3.6,2.4c-0.4,0.1-0.8,0.1-1.2,0.1c-11.5,0-23.1,0-34.7,0c-1.8,0-3.4-1.3-4.6-2.3
			l-0.1-0.1c0,0,0-0.1-0.1-0.1C17.3,26.1,32,26.1,46.8,26.1 M46.8,24H2.6c-1.2,0-2.1,0.9-2.1,2.1c0,0.7,0.3,1.3,0.8,1.7c0,0,0,0,0,0
			l0.1,0.1c1.3,1.1,3.4,2.8,5.9,2.8h34.7c0.4,0,1,0,1.6-0.1c1.6-0.3,2.9-1.4,3.9-2.3c0.2-0.2,0.4-0.4,0.6-0.5c0.7-0.6,1-1.5,0.7-2.3
			C48.5,24.6,47.7,24,46.8,24L46.8,24z M46.8,28.2L46.8,28.2L46.8,28.2L46.8,28.2z"/>
	</g>
	<g>
		<path class="st2" d="M45.2,24.7C44.6,14,35.8,5.5,25,5.5S5.4,14,4.8,24.7"/>
		<circle class="st2" cx="25" cy="3.4" r="2.1"/>
	</g>
	<path class="st2" d="M25,11.5c-5.1,0-9.7,2.6-12.4,6.5"/>
</g>
</svg>
