<?xml version="1.0" encoding="utf-8"?>
<!-- Generator: Adobe Illustrator 25.3.1, SVG Export Plug-In . SVG Version: 6.00 Build 0)  -->
<svg version="1.1" id="Laag_1" xmlns="http://www.w3.org/2000/svg" xmlns:xlink="http://www.w3.org/1999/xlink" x="0px" y="0px"
	 width="71px" height="71px" viewBox="0 0 71 71" style="enable-background:new 0 0 71 71;" xml:space="preserve">
<style type="text/css">
	.st0{fill:#98BF82;}
	.st1{fill:#1C3A2C;}
	.st2{fill:#E92A43;}
	.st3{fill:#1C3B2B;}
	.st4{fill:#FFFFD9;}
	.st5{fill:#F2F23D;}
</style>
<g>
	<g>
		<path class="st4" d="M35.5,59.1c-13,0-23.6-10.6-23.6-23.6s10.6-23.6,23.6-23.6s23.6,10.6,23.6,23.6S48.5,59.1,35.5,59.1z
			 M35.5,13.9c-11.9,0-21.6,9.7-21.6,21.6c0,11.9,9.7,21.6,21.6,21.6s21.6-9.7,21.6-21.6C57.1,23.6,47.4,13.9,35.5,13.9z"/>
	</g>
	<g>
		<g>
			<path class="st4" d="M25.7,26.3c-1.7,0-3,1.4-3,3c0,1.7,1.4,3,3,3s3-1.4,3-3C28.8,27.7,27.4,26.3,25.7,26.3z"/>
			<path class="st4" d="M45.3,26.3c-1.7,0-3,1.4-3,3c0,1.7,1.4,3,3,3s3-1.4,3-3C48.3,27.7,46.9,26.3,45.3,26.3z"/>
		</g>
		<g>
			<path class="st4" d="M35.5,48.1c-5.9,0-10.8-4.8-10.8-10.8h2c0,4.8,3.9,8.8,8.8,8.8s8.8-3.9,8.8-8.8h2
				C46.3,43.3,41.4,48.1,35.5,48.1z"/>
		</g>
	</g>
</g>
</svg>
