<?xml version="1.0" encoding="utf-8"?>
<!-- Generator: Adobe Illustrator 25.3.1, SVG Export Plug-In . SVG Version: 6.00 Build 0)  -->
<svg version="1.1" id="Laag_1" xmlns="http://www.w3.org/2000/svg" xmlns:xlink="http://www.w3.org/1999/xlink" x="0px" y="0px"
	 width="71px" height="71px" viewBox="0 0 71 71" style="enable-background:new 0 0 71 71;" xml:space="preserve">
<style type="text/css">
	.st0{fill:#98BF82;}
	.st1{fill:#1C3A2C;}
	.st2{fill:#E92A43;}
	.st3{fill:#1C3B2B;}
	.st4{fill:#FFFFD9;}
	.st5{fill:#F2F23D;}
</style>
<g>
	<path class="st1" d="M44.8,29.5c-2.9-3.2-6-5-8.8-5h-1c-2.8,0-5.9,1.8-8.8,5c-4.1,4.6-6.6,10.7-6.1,14.9c0.8,7.2,5,8.4,7.7,9.2
		c1.1,0.3,2,0.6,2.4,1.1c3,3.3,4.1,5,4.4,5.4l0.9,1.4l0.9-1.4c0.3-0.4,1.4-2.2,4.4-5.4c0.4-0.5,1.4-0.8,2.4-1.1
		c2.8-0.8,6.9-2,7.7-9.2C51.4,40.2,48.9,34.1,44.8,29.5z M27.7,30.8c2.5-2.8,5.1-4.4,7.3-4.4h1c2.2,0,4.9,1.6,7.3,4.4
		c2.7,3,4.7,6.9,5.4,10.1H22.3C23,37.7,25,33.9,27.7,30.8z M49,44.2c-0.7,5.9-3.7,6.7-6.3,7.5c-1.3,0.4-2.5,0.7-3.3,1.6
		c-1.9,2.1-3.1,3.5-3.8,4.5c-0.7-1-1.9-2.4-3.8-4.5c-0.8-0.9-2-1.3-3.3-1.6c-2.6-0.8-5.6-1.7-6.3-7.5c0-0.4,0-0.8,0-1.2h27
		C49,43.4,49,43.8,49,44.2z"/>
	<path class="st1" d="M50.1,10c-0.1,0-3.6-0.5-6.7-0.5c-2.4,0-4,0.3-5.1,0.8c-1.2,0.6-2.1,1.6-2.8,2.7c-0.6-1.1-1.6-2.1-2.8-2.7
		c-1.1-0.6-2.7-0.8-5.1-0.8h0c-3.2,0-6.6,0.5-6.7,0.5l-2.7,0.4l1.2,2.5c0.9,1.9,4.1,8.2,6.9,9.7c1,0.5,2.1,0.8,3.3,0.8
		c1.9,0,3.7-0.8,5-2.2v4.9h2v-4.9c1.3,1.4,3.1,2.2,5,2.2c1.1,0,2.3-0.3,3.3-0.8c2.7-1.5,6-7.8,6.9-9.7l1.2-2.5L50.1,10z M21.1,12
		L21.1,12L21.1,12L21.1,12z M29.5,21.4c-0.8,0-1.6-0.2-2.3-0.6c-1.7-0.9-4-4.9-5.2-7.2l11.3,6C32.3,20.7,30.9,21.4,29.5,21.4z
		 M33.8,18.8C33.8,18.8,33.8,18.8,33.8,18.8L33.8,18.8C33.8,18.8,33.8,18.8,33.8,18.8z M34.2,17.8l-11.3-6c1.3-0.1,3-0.3,4.7-0.3
		c1.7,0,3.3,0.1,4.2,0.6C33.9,13.2,34.8,15.7,34.2,17.8z M39.2,12.1c0.9-0.5,2.5-0.6,4.2-0.6c1.7,0,3.5,0.1,4.7,0.3l-11.3,6
		C36.2,15.7,37.1,13.2,39.2,12.1z M37.2,18.8C37.2,18.8,37.2,18.8,37.2,18.8L37.2,18.8C37.2,18.8,37.2,18.8,37.2,18.8z M43.8,20.8
		c-0.7,0.4-1.5,0.6-2.3,0.6c-1.4,0-2.8-0.6-3.8-1.8l11.3-6C47.8,15.8,45.5,19.9,43.8,20.8z M49.9,12L49.9,12L49.9,12L49.9,12z"/>
</g>
</svg>
