<?xml version="1.0" encoding="utf-8"?>
<!-- Generator: Adobe Illustrator 25.3.1, SVG Export Plug-In . SVG Version: 6.00 Build 0)  -->
<svg version="1.1" id="Laag_1" xmlns="http://www.w3.org/2000/svg" xmlns:xlink="http://www.w3.org/1999/xlink" x="0px" y="0px"
	 width="71px" height="71px" viewBox="0 0 71 71" style="enable-background:new 0 0 71 71;" xml:space="preserve">
<style type="text/css">
	.st0{fill:#98BF82;}
	.st1{fill:#1C3A2C;}
	.st2{fill:#E92A43;}
	.st3{fill:#1C3B2B;}
	.st4{fill:#FFFFD9;}
	.st5{fill:#F2F23D;}
</style>
<g>
	<g>
		<path class="st4" d="M35.5,61.4l-0.8-1.1c-0.7-1-16.9-23.4-16.9-32.9c0-9.8,8-17.8,17.8-17.8s17.8,8,17.8,17.8
			c0,9.5-16.3,31.9-16.9,32.9L35.5,61.4z M35.5,11.6c-8.7,0-15.8,7.1-15.8,15.8c0,7.7,12.4,25.8,15.8,30.6
			c3.3-4.7,15.8-22.9,15.8-30.6C51.3,18.7,44.2,11.6,35.5,11.6z"/>
	</g>
	<g>
		<path class="st4" d="M35.5,20.9c2.9,0,5.2,2.3,5.2,5.2c0,2.9-2.3,5.2-5.2,5.2c-2.9,0-5.2-2.3-5.2-5.2
			C30.3,23.2,32.6,20.9,35.5,20.9 M35.5,18.9c-4,0-7.2,3.2-7.2,7.2c0,4,3.2,7.2,7.2,7.2c4,0,7.2-3.2,7.2-7.2
			C42.7,22.1,39.5,18.9,35.5,18.9L35.5,18.9z"/>
	</g>
</g>
</svg>
