<?xml version="1.0" encoding="utf-8"?>
<!-- Generator: Adobe Illustrator 25.3.1, SVG Export Plug-In . SVG Version: 6.00 Build 0)  -->
<svg version="1.1" id="Laag_1" xmlns="http://www.w3.org/2000/svg" xmlns:xlink="http://www.w3.org/1999/xlink" x="0px" y="0px"
	 width="71px" height="71px" viewBox="0 0 71 71" style="enable-background:new 0 0 71 71;" xml:space="preserve">
<style type="text/css">
	.st0{fill:#98BF82;}
	.st1{fill:#1C3A2C;}
	.st2{fill:#E92A43;}
	.st3{fill:#1C3B2B;}
	.st4{fill:#FFFFD9;}
	.st5{fill:#F2F23D;}
</style>
<path class="st0" d="M36.3,10.6l-0.8-1.1l-0.8,1.1C34.1,11.4,21,29.5,21,37.2c0,7.7,6,14,13.5,14.5v-2C28.1,49.2,23,43.8,23,37.2
	c0-5.5,7.9-17.6,11.5-22.9c0.4-0.6,0.7-1,1-1.4c0.3,0.4,0.6,0.9,1,1.4C40.1,19.7,48,31.8,48,37.2c0,6.6-5.1,12-11.5,12.5v2
	C44,51.2,50,44.9,50,37.2C50,29.5,36.9,11.4,36.3,10.6z"/>
<path class="st5" d="M35.5,12.9c-0.3,0.4-0.6,0.9-1,1.4v35.3v2v9.8h2v-9.8v-2V14.3C36.1,13.8,35.8,13.3,35.5,12.9z"/>
</svg>
