<?xml version="1.0" encoding="utf-8"?>
<!-- Generator: Adobe Illustrator 25.3.1, SVG Export Plug-In . SVG Version: 6.00 Build 0)  -->
<svg version="1.1" id="Laag_1" xmlns="http://www.w3.org/2000/svg" xmlns:xlink="http://www.w3.org/1999/xlink" x="0px" y="0px"
	 width="71px" height="71px" viewBox="0 0 71 71" style="enable-background:new 0 0 71 71;" xml:space="preserve">
<style type="text/css">
	.st0{fill:#98BF82;}
	.st1{fill:#1C3A2C;}
</style>
<circle class="st0" cx="35.5" cy="35.5" r="35"/>
<path class="st1" d="M36.3,10.6l-0.8-1.1l-0.8,1.1C34.1,11.4,21,29.5,21,37.2s6,14,13.5,14.5v9.7h2v-9.7C44,51.2,50,44.9,50,37.2
	S36.9,11.4,36.3,10.6z M34.5,49.6v0.1C28.1,49.2,23,43.8,23,37.2c0-5.5,7.9-17.6,11.5-22.9 M36.5,49.7v-0.1V14.3
	C40.1,19.7,48,31.8,48,37.2C48,43.8,42.9,49.2,36.5,49.7z"/>
</svg>
