<?xml version="1.0" encoding="utf-8"?>
<!-- Generator: Adobe Illustrator 25.3.1, SVG Export Plug-In . SVG Version: 6.00 Build 0)  -->
<svg version="1.1" id="Laag_1" xmlns="http://www.w3.org/2000/svg" xmlns:xlink="http://www.w3.org/1999/xlink" x="0px" y="0px"
	 width="71px" height="71px" viewBox="0 0 71 71" style="enable-background:new 0 0 71 71;" xml:space="preserve">
<style type="text/css">
	.st0{fill:#98BF82;}
	.st1{fill:#1C3A2C;}
	.st2{fill:#E92A43;}
	.st3{fill:#1C3B2B;}
	.st4{fill:#FFFFD9;}
	.st5{fill:#F2F23D;}
</style>
<g>
	<g>
		<g id="_x3C_Radiale_herhaling_x3E__31_">
			<g>
				
					<rect x="10.5" y="40.8" transform="matrix(0.9476 -0.3194 0.3194 0.9476 -12.5042 7.3737)" class="st4" width="11.5" height="2"/>
			</g>
		</g>
		<g id="_x3C_Radiale_herhaling_x3E__30_">
			<g>
				
					<rect x="17.9" y="50.9" transform="matrix(0.579 -0.8153 0.8153 0.579 -32.3983 41.1126)" class="st4" width="11.5" height="2"/>
			</g>
		</g>
		<g id="_x3C_Radiale_herhaling_x3E__29_">
			<g>
				
					<rect x="34.5" y="50" transform="matrix(0.9999 -1.118764e-02 1.118764e-02 0.9999 -0.6218 0.4011)" class="st4" width="2" height="11.5"/>
			</g>
		</g>
		<g id="_x3C_Radiale_herhaling_x3E__28_">
			<g>
				
					<rect x="46.5" y="46.1" transform="matrix(0.8024 -0.5968 0.5968 0.8024 -21.5863 38.5715)" class="st4" width="2" height="11.5"/>
			</g>
		</g>
		<g id="_x3C_Radiale_herhaling_x3E__27_">
			<g>
				<rect x="53.8" y="36" transform="matrix(0.2983 -0.9545 0.9545 0.2983 -1.3769 81.5831)" class="st4" width="2" height="11.5"/>
			</g>
		</g>
		<g id="_x3C_Radiale_herhaling_x3E__26_">
			<g>
				<rect x="49" y="28.2" transform="matrix(0.9476 -0.3194 0.3194 0.9476 -6.4566 19.0271)" class="st4" width="11.5" height="2"/>
			</g>
		</g>
		<g id="_x3C_Radiale_herhaling_x3E__25_">
			<g>
				<rect x="41.6" y="18.1" transform="matrix(0.579 -0.8153 0.8153 0.579 4.3998 46.6637)" class="st4" width="11.5" height="2"/>
			</g>
		</g>
		<g id="_x3C_Radiale_herhaling_x3E__24_">
			<g>
				
					<rect x="34.5" y="9.5" transform="matrix(0.9999 -1.127238e-02 1.127238e-02 0.9999 -0.1693 0.4007)" class="st4" width="2" height="11.5"/>
			</g>
		</g>
		<g id="_x3C_Radiale_herhaling_x3E__23_">
			<g>
				
					<rect x="22.5" y="13.4" transform="matrix(0.8024 -0.5968 0.5968 0.8024 -6.7573 17.8323)" class="st4" width="2" height="11.5"/>
			</g>
		</g>
		<g id="_x3C_Radiale_herhaling_x3E__22_">
			<g>
				
					<rect x="15.2" y="23.5" transform="matrix(0.2983 -0.9545 0.9545 0.2983 -16.572 36.0036)" class="st4" width="2" height="11.5"/>
			</g>
		</g>
	</g>
	<g>
		<g>
			<path class="st4" d="M35.5,51.7c-0.2,0-0.5,0-0.7,0c-4.3-0.2-8.3-2-11.2-5.2s-4.4-7.3-4.3-11.6c0.4-8.9,7.9-15.8,16.9-15.5
				c4.3,0.2,8.3,2,11.2,5.2s4.4,7.3,4.3,11.6l0,0C51.3,44.9,44.1,51.7,35.5,51.7z M35.5,21.3c-7.6,0-13.9,6-14.2,13.6
				c-0.2,3.8,1.2,7.4,3.7,10.2c2.6,2.8,6.1,4.4,9.9,4.6c7.8,0.3,14.5-5.7,14.8-13.6c0.2-3.8-1.2-7.4-3.7-10.2
				c-2.6-2.8-6.1-4.4-9.9-4.6C35.9,21.3,35.7,21.3,35.5,21.3z"/>
		</g>
	</g>
</g>
</svg>
