<?xml version="1.0" encoding="utf-8"?>
<!-- Generator: Adobe Illustrator 25.3.1, SVG Export Plug-In . SVG Version: 6.00 Build 0)  -->
<svg version="1.1" id="Laag_1" xmlns="http://www.w3.org/2000/svg" xmlns:xlink="http://www.w3.org/1999/xlink" x="0px" y="0px"
	 width="226.1px" height="42.5px" viewBox="0 0 226.1 42.5" style="enable-background:new 0 0 226.1 42.5;" xml:space="preserve">
<style type="text/css">
	.st0{fill:#98BF82;}
	.st1{fill:#1C3A2C;}
	.st2{fill:#E92A43;}
	.st3{fill:#1C3B2B;}
	.st4{fill:#FFFFD9;}
	.st5{fill:#F2F23D;}
</style>
<g> 
	<path class="st3" d="M4.8,39.8c-4.9-3.8-3.1-13.6-3.1-19c0-2.5-0.3-5.5,0.9-7.7C5.3,7.8,13,7,17.5,10.4c1.2,0.9,5.3,8.7,2.1,8.7
		c-2.3,0-5.7,1.1-5.7-1.9c0-3.7-5.5-3.8-5.5-0.1c0,2.8,0,5.7,0,8.5c0,2.3-0.6,5.6,0,7.8c0,2.4,3,3.1,4.8,1.8c1-0.7,0.7-2.3,0.7-3.4
		c0-0.5,0.3-3.6-0.2-3.6c-0.7,0-2.5,0.4-3.1,0c-1.3,0-1.4-5.5,0.1-5.5c2.8,0,5.7,0,8.6,0c2.1,0,1.2,3.8,1.2,5.2
		c0,2.8,0.5,6.6-0.8,9.2C17,42.4,9.3,43.3,4.8,39.8C3.9,39.2,5.7,40.5,4.8,39.8z"/>
	<path class="st3" d="M39.2,10.3c4.9,3.8,3.1,13.6,3.1,18.9c0,2.5,0.4,5.5-0.9,7.7c-2.7,5.2-10.4,6-14.8,2.6
		c-4.9-3.8-3.1-13.6-3.1-18.9c0-2.5-0.3-5.4,0.9-7.7C27,7.7,34.7,6.9,39.2,10.3C40.1,11,38.3,9.7,39.2,10.3z M30.1,16.8
		c0,1.6,0,3.2,0,4.8c0,3.5-0.9,8.3,0,11.7c0,3.3,5.5,3.3,5.5,0c0-1.6,0-3.3,0-4.9c0-3.9,0-7.8,0-11.7C35.6,13.4,30.1,13.5,30.1,16.8
		z"/>
	<path class="st3" d="M45.2,36.5c0-7.4,0-14.7,0-22.1c0-1.1-0.6-4.5,0.2-5.4c1.1-1.1,5.9-0.2,7.2-0.2c1.8,0,7-1,8.6,0
		c1.2,0,1.4,5.7-0.1,5.7c-3.1,0-6.1,0-9.2,0c-0.2,0-0.1,6.7-0.1,7.5c0,0.3,7.1,0.2,8,0.2c1.5,0,1.4,5.7,0.1,5.7
		c-1.7,1.1-6.6-1.4-8.1,0c-0.3,0.3-0.3,7.4,0,7.6c1.1,1,7.3,0,8.9,0c1.7,0,1.9,4.8,1,5.7c-1.2,1.2-6.7,0.2-8.2,0.2
		c-2.5,0-5.1,0-7.6,0C44.6,41.4,45.2,37.2,45.2,36.5z"/>
	<path class="st3" d="M80.3,39.4c-3.8,3.3-10,2.3-14.7,2.3c-1.7,0-1-4.8-1-5.7c0-8.5,0-17,0-25.5c0-3.2,3-2.2,5.6-2.2
		c5.5,0,11.8,0.6,12.7,7.4c0.5,3.7,0.1,7.7,0.1,11.5C83.1,31.2,83.8,36.4,80.3,39.4C78.5,40.9,82.2,37.8,80.3,39.4z M76.3,19.2
		c0-1.9,0.3-4.5-2.1-4.9c-1.9-0.3-2.8-0.6-2.8,1.2c0,5.2,0,10.4,0,15.6c0,1.6,0,3.2,0,4.7c0,0.4,4.9-0.1,4.9-3.2
		C76.3,28.2,76.3,23.7,76.3,19.2z"/>
	<path class="st3" d="M85.8,36.5c0-7.4,0-14.7,0-22.1c0-1.1-0.6-4.5,0.2-5.4c1.1-1.1,5.9-0.2,7.2-0.2c1.8,0,7-1,8.6,0
		c1.2,0,1.4,5.7-0.1,5.7c-3.1,0-6.1,0-9.2,0c-0.2,0-0.1,6.7-0.1,7.5c0,0.3,7.1,0.2,8,0.2c1.5,0,1.4,5.7,0.1,5.7
		c-1.7,1.1-6.6-1.4-8.1,0c-0.3,0.3-0.3,7.4,0,7.6c1.1,1,7.3,0,8.9,0c1.7,0,1.9,4.8,1,5.7c-1.2,1.2-6.7,0.2-8.2,0.2
		c-2.5,0-5.1,0-7.6,0C85.2,41.4,85.8,37.2,85.8,36.5z"/>
	<path class="st3" d="M123.9,13.9c-0.6,0.6-5.8,0-5.8,0.3c0,4.4,0,8.9,0,13.4c0,3.1,0,6.1,0,9.2c0,0.8,0.5,3.5,0,4.2
		c0,1.2-5.3,1.1-6,0.8c-1.1,0-0.7-2.3-0.7-2.9c0-6,0-12,0-18c0-2.1,0-4.1,0-6.2c0-1-3.6-0.5-4.5-0.5c-2.4,0-1.6-3-1.6-4.8
		c0-1.6,2.8-1,3.8-1c4.7,0,9.4,0,14.2,0C124.6,8.3,124.6,13.2,123.9,13.9z"/>
	<path class="st3" d="M126.9,36.5c0-7.4,0-14.7,0-22.1c0-1.1-0.6-4.5,0.2-5.4c1.1-1.1,5.9-0.2,7.2-0.2c1.8,0,7-1,8.6,0
		c1.2,0,1.4,5.7-0.1,5.7c-3.1,0-6.1,0-9.2,0c-0.2,0-0.1,6.7-0.1,7.5c0,0.3,7.1,0.2,8,0.2c1.5,0,1.4,5.7,0.1,5.7
		c-1.7,1.1-6.6-1.4-8.1,0c-0.3,0.3-0.3,7.4,0,7.6c1.1,1,7.3,0,8.9,0c1.7,0,1.9,4.8,1,5.7c-1.2,1.2-6.7,0.2-8.2,0.2
		c-2.5,0-5.1,0-7.6,0C126.4,41.4,126.9,37.2,126.9,36.5z"/>
	<path class="st3" d="M166.2,39.7c0,3.7-5.9,2.9-7,0.1c-2-4.8-4-9.6-6-14.4c0,3.8,0,7.7,0,11.6c0,4.4,0.3,4.8-4.4,4.8
		c-3.1,0-2.4-1.6-2.4-4.3c0-4.5,0-8.9,0-13.4c0-4.2,0-8.4,0-12.6c0-3.4,0.7-3.1,4.2-3.1c3.4,0,3.7,3.8,4.9,6.6
		c1.3,3.3,2.7,6.6,4,9.8c0-4.2,0-8.3,0-12.5c0-0.6-0.5-4,0.7-4c1-0.6,4.1,0,5.2,0C167,8.4,166.2,36.6,166.2,39.7z"/>
</g>
<g>
	<path class="st2" d="M220,11.4c-3.9-3.3-8.2-4.1-13.2-2.7c-1.9,0.6-4.3,0.9-6.8,1c-2.6-0.1-4.9-0.5-6.8-1c-5-1.5-9.3-0.6-13.2,2.7
		c-6.4,5.4-5.6,13.7-2,19.6c4.6,7.5,11.2,10.8,22,10.8c0.1,0,0.2,0,0.2,0c10.4,0,17.1-3.3,21.7-10.8C225.6,25.1,226.4,16.8,220,11.4
		z"/>
	<path class="st1" d="M214.6,3.5l-0.1-0.4l-0.4,0.2c-5.2,3.1-10.2,4.2-11.7,4.5l3.5-7.3l-5.2,0l-1.5,7c-1.6-0.5-5.3-3.2-7.8-5
		c-1.2-0.9-2.3-1.6-2.8-2l-0.4-0.3l0,0.5c0,0.1,0,1.8,0.9,4c1.1,2.5,4.4,4.2,5.6,4.8c-1.4,0.9-5.3,4-4.3,8.9c0,0.2,0.2,0.3,0.3,0.3
		c0.3,0.1,0.6-0.2,1.3-1c1.3-1.5,3.7-4.4,7.1-4.7c5.3-0.5,6.5,3.7,7,5.5c0.2,0.7,0.3,0.9,0.5,1c0,0,0,0,0.1,0c0.1,0,0.2,0,0.3-0.2
		c1.2-1.5,1.7-3,1.4-4.6c-0.3-1.9-1.7-3.3-2.5-3.9c1.4-0.2,4.7-0.9,6.4-2.7C214.9,5.5,214.6,3.6,214.6,3.5z"/>
</g>
</svg>
