<?xml version="1.0" encoding="utf-8"?>
<!-- Generator: Adobe Illustrator 25.3.1, SVG Export Plug-In . SVG Version: 6.00 Build 0)  -->
<svg version="1.1" id="Laag_1" xmlns="http://www.w3.org/2000/svg" xmlns:xlink="http://www.w3.org/1999/xlink" x="0px" y="0px"
	 width="247.5px" height="62px" viewBox="0 0 247.5 62" style="enable-background:new 0 0 247.5 62;" xml:space="preserve">
<style type="text/css">
	.st0{fill:#98BF82;}
	.st1{fill:#1C3A2C;}
	.st2{fill:#E92A43;}
	.st3{fill:#1C3B2B;}
	.st4{fill:#FFFFD9;}
	.st5{fill:#F2F23D;}
</style>
<g>
	<path class="st0" d="M124.5,31.3l-0.8-1.1l-0.8,1.1"/>
</g>
<g>
	<g>
		<path class="st2" d="M238.9,16.8c-5.7-4.8-12.1-6.1-19.4-4c-2.8,0.8-6.3,1.3-10,1.5c-3.8-0.2-7.2-0.7-10.1-1.5
			c-7.4-2.2-13.7-0.9-19.4,3.9c-9.4,7.9-8.3,20.2-3,28.9c6.8,11.1,16.5,15.9,32.4,16c0.1,0,0.2,0,0.4,0c15.4,0,25.3-4.9,32.1-15.9
			C247.1,37,248.3,24.7,238.9,16.8z"/>
		<path class="st1" d="M230.8,5.2l-0.1-0.6L230.2,5c-7.7,4.6-15,6.2-17.3,6.6l5.2-10.8l-7.7,0L208.2,11c-2.3-0.7-7.8-4.7-11.5-7.3
			c-1.8-1.3-3.3-2.4-4.2-2.9l-0.6-0.4l0,0.7c0,0.1-0.1,2.7,1.4,5.8c1.7,3.7,6.4,6.2,8.3,7c-2.1,1.4-7.8,5.8-6.4,13.2
			c0.1,0.4,0.3,0.5,0.4,0.5c0.5,0.1,0.9-0.4,1.9-1.5c1.9-2.3,5.4-6.5,10.4-6.9c7.9-0.7,9.6,5.5,10.4,8.1c0.3,1,0.4,1.4,0.8,1.4
			c0,0,0.1,0,0.1,0c0.1,0,0.3,0,0.4-0.2c1.8-2.2,2.5-4.5,2.1-6.7c-0.5-2.8-2.5-4.8-3.7-5.8c2.1-0.3,6.9-1.4,9.4-4
			C231.3,8.1,230.9,5.4,230.8,5.2z"/>
	</g>
	<g>
		<g>
			<polygon class="st3" points="2.1,49 2.1,61.4 2.9,61.4 2.9,58.3 4.3,57.1 7.6,61.4 8.5,61.4 4.8,56.5 8.2,52.8 7.3,52.8 
				2.8,57.6 2.8,57.6 2.9,55.2 2.9,49 			"/>
			<path class="st3" d="M13.2,53.3c-0.8,0-1.5,0.3-2,0.8c-0.5,0.5-0.8,1.3-0.9,2.4h5.4c0-1-0.2-1.8-0.7-2.4
				C14.6,53.6,14,53.3,13.2,53.3 M13.5,61.6c-1.3,0-2.2-0.4-2.9-1.2c-0.7-0.8-1.1-1.9-1.1-3.3c0-1.4,0.3-2.5,1-3.3
				c0.7-0.8,1.6-1.2,2.8-1.2c1,0,1.8,0.4,2.4,1.1c0.6,0.7,0.9,1.7,0.9,2.9v0.6h-6.2c0,1.2,0.3,2.1,0.8,2.7c0.5,0.6,1.3,0.9,2.3,0.9
				c0.5,0,0.9,0,1.3-0.1c0.4-0.1,0.8-0.2,1.4-0.4V61c-0.5,0.2-0.9,0.4-1.4,0.4C14.4,61.6,14,61.6,13.5,61.6"/>
			<path class="st3" d="M19.6,52.8v5.6c0,0.9,0.2,1.5,0.5,1.9c0.4,0.4,0.9,0.6,1.7,0.6c1,0,1.8-0.3,2.3-0.8c0.5-0.5,0.7-1.4,0.7-2.5
				v-4.8h0.8v8.7H25l-0.1-1.2h0c-0.6,0.9-1.6,1.4-3,1.4c-2,0-3-1.1-3-3.2v-5.7H19.6z"/>
			<polygon class="st3" points="28.6,49 28.6,61.4 29.4,61.4 29.4,58.3 30.8,57.1 34.1,61.4 35,61.4 31.3,56.5 34.7,52.8 33.8,52.8 
				29.3,57.6 29.3,57.6 29.4,55.2 29.4,49 			"/>
			<path class="st3" d="M39.7,53.3c-0.8,0-1.5,0.3-2,0.8c-0.5,0.5-0.8,1.3-0.9,2.4h5.4c0-1-0.2-1.8-0.7-2.4
				C41.1,53.6,40.5,53.3,39.7,53.3 M40,61.6c-1.3,0-2.2-0.4-2.9-1.2c-0.7-0.8-1.1-1.9-1.1-3.3c0-1.4,0.3-2.5,1-3.3
				c0.7-0.8,1.6-1.2,2.8-1.2c1,0,1.8,0.4,2.4,1.1c0.6,0.7,0.9,1.7,0.9,2.9v0.6h-6.2c0,1.2,0.3,2.1,0.8,2.7c0.5,0.6,1.3,0.9,2.3,0.9
				c0.5,0,0.9,0,1.3-0.1c0.4-0.1,0.8-0.2,1.4-0.4V61c-0.5,0.2-0.9,0.4-1.4,0.4C40.9,61.6,40.5,61.6,40,61.6"/>
			<path class="st3" d="M51.5,61.4v-5.6c0-0.9-0.2-1.5-0.6-1.9c-0.4-0.4-0.9-0.6-1.7-0.6c-1,0-1.8,0.3-2.3,0.8
				c-0.5,0.5-0.7,1.4-0.7,2.5v4.8h-0.8v-8.7h0.7l0.2,1.2h0c0.6-0.9,1.6-1.4,3-1.4c2,0,3,1.1,3,3.2v5.7H51.5z"/>
			<path class="st3" d="M61.2,61.4l-3.3-8.7h0.8l2.2,5.9c0.3,0.8,0.5,1.4,0.7,2h0c0.2-0.7,0.4-1.4,0.7-2l2.2-5.9h0.8L62,61.4H61.2z"
				/>
			<path class="st3" d="M67.1,57.1c0,1.2,0.3,2.1,0.8,2.8c0.5,0.7,1.3,1,2.2,1c1,0,1.7-0.3,2.2-1c0.5-0.7,0.8-1.6,0.8-2.8
				c0-1.2-0.3-2.1-0.8-2.8c-0.5-0.7-1.3-1-2.2-1c-1,0-1.7,0.3-2.2,1C67.4,55,67.1,55.9,67.1,57.1 M74,57.1c0,1.4-0.3,2.5-1,3.3
				c-0.7,0.8-1.6,1.2-2.8,1.2c-0.8,0-1.4-0.2-2-0.5c-0.6-0.4-1-0.9-1.3-1.6c-0.3-0.7-0.5-1.5-0.5-2.4c0-1.4,0.3-2.5,1-3.3
				c0.7-0.8,1.6-1.2,2.8-1.2c1.2,0,2.1,0.4,2.8,1.2C73.6,54.6,74,55.7,74,57.1"/>
			<path class="st3" d="M76.7,57.1c0,1.2,0.3,2.1,0.8,2.8c0.5,0.7,1.3,1,2.2,1c1,0,1.7-0.3,2.2-1c0.5-0.7,0.8-1.6,0.8-2.8
				c0-1.2-0.3-2.1-0.8-2.8c-0.5-0.7-1.3-1-2.2-1c-1,0-1.7,0.3-2.2,1C77,55,76.7,55.9,76.7,57.1 M83.6,57.1c0,1.4-0.3,2.5-1,3.3
				c-0.7,0.8-1.6,1.2-2.8,1.2c-0.8,0-1.4-0.2-2-0.5c-0.6-0.4-1-0.9-1.3-1.6c-0.3-0.7-0.5-1.5-0.5-2.4c0-1.4,0.3-2.5,1-3.3
				c0.7-0.8,1.6-1.2,2.8-1.2c1.2,0,2.1,0.4,2.8,1.2C83.2,54.6,83.6,55.7,83.6,57.1"/>
			<path class="st3" d="M89.4,52.6c0.4,0,0.8,0,1.2,0.1l-0.2,0.8c-0.4-0.1-0.7-0.1-1.1-0.1c-0.7,0-1.3,0.3-1.8,0.9
				c-0.5,0.6-0.7,1.4-0.7,2.4v4.8H86v-8.7h0.7l0.1,1.6h0.1c0.4-0.6,0.7-1.1,1.1-1.3C88.3,52.7,88.8,52.6,89.4,52.6"/>
			<path class="st3" d="M99.7,53.3c-0.9,0-1.7,0.3-2.1,1c-0.5,0.7-0.7,1.6-0.7,2.9c0,2.5,1,3.7,2.9,3.7c1,0,1.7-0.3,2.2-0.9
				c0.5-0.6,0.7-1.5,0.7-2.8v-0.1c0-1.3-0.2-2.3-0.7-2.9C101.5,53.6,100.7,53.3,99.7,53.3 M99.7,52.6c0.6,0,1.2,0.1,1.6,0.3
				c0.5,0.2,0.9,0.6,1.2,1.2h0c0-0.7,0-1.3,0-2V49h0.8v12.4h-0.5l-0.2-1.3h-0.1c-0.7,1-1.6,1.5-2.8,1.5c-1.2,0-2.1-0.4-2.7-1.1
				c-0.6-0.7-0.9-1.8-0.9-3.3c0-1.5,0.3-2.6,0.9-3.4C97.6,53,98.5,52.6,99.7,52.6"/>
			<path class="st3" d="M109.5,53.3c-0.8,0-1.5,0.3-2,0.8c-0.5,0.5-0.8,1.3-0.9,2.4h5.4c0-1-0.2-1.8-0.7-2.4
				C110.9,53.6,110.3,53.3,109.5,53.3 M109.8,61.6c-1.3,0-2.2-0.4-2.9-1.2c-0.7-0.8-1.1-1.9-1.1-3.3c0-1.4,0.3-2.5,1-3.3
				c0.7-0.8,1.6-1.2,2.8-1.2c1,0,1.8,0.4,2.4,1.1c0.6,0.7,0.9,1.7,0.9,2.9v0.6h-6.2c0,1.2,0.3,2.1,0.8,2.7c0.5,0.6,1.3,0.9,2.3,0.9
				c0.5,0,0.9,0,1.3-0.1c0.4-0.1,0.8-0.2,1.4-0.4V61c-0.5,0.2-0.9,0.4-1.4,0.4C110.7,61.6,110.3,61.6,109.8,61.6"/>
			<path class="st3" d="M126.4,61.4l-1.9-5.8c-0.1-0.4-0.3-1-0.5-1.7h0l-0.2,0.6l-0.4,1.2l-1.9,5.8h-0.8l-2.5-8.7h0.8l1.4,5
				c0.3,1.2,0.5,2.2,0.6,2.7h0c0.3-1.2,0.5-2.1,0.7-2.5l1.8-5.3h0.7l1.7,5.3c0.4,1.2,0.6,2.1,0.7,2.5h0c0-0.3,0.3-1.3,0.6-2.8l1.3-5
				h0.8l-2.4,8.7H126.4z"/>
			<path class="st3" d="M134.6,53.3c-0.8,0-1.5,0.3-2,0.8c-0.5,0.5-0.8,1.3-0.9,2.4h5.4c0-1-0.2-1.8-0.7-2.4S135.3,53.3,134.6,53.3
				 M134.8,61.6c-1.3,0-2.2-0.4-2.9-1.2c-0.7-0.8-1.1-1.9-1.1-3.3c0-1.4,0.3-2.5,1-3.3c0.7-0.8,1.6-1.2,2.8-1.2c1,0,1.8,0.4,2.4,1.1
				c0.6,0.7,0.9,1.7,0.9,2.9v0.6h-6.2c0,1.2,0.3,2.1,0.8,2.7c0.5,0.6,1.3,0.9,2.3,0.9c0.5,0,0.9,0,1.3-0.1c0.4-0.1,0.8-0.2,1.4-0.4
				V61c-0.5,0.2-0.9,0.4-1.4,0.4C135.7,61.6,135.3,61.6,134.8,61.6"/>
			<path class="st3" d="M143.7,52.6c0.4,0,0.8,0,1.2,0.1l-0.2,0.8c-0.4-0.1-0.7-0.1-1.1-0.1c-0.7,0-1.3,0.3-1.8,0.9
				c-0.5,0.6-0.7,1.4-0.7,2.4v4.8h-0.8v-8.7h0.7l0.1,1.6h0.1c0.4-0.6,0.7-1.1,1.1-1.3C142.6,52.7,143.1,52.6,143.7,52.6"/>
			<path class="st3" d="M149.9,53.3c-0.8,0-1.5,0.3-2,0.8c-0.5,0.5-0.8,1.3-0.9,2.4h5.4c0-1-0.2-1.8-0.7-2.4
				C151.3,53.6,150.6,53.3,149.9,53.3 M150.1,61.6c-1.3,0-2.2-0.4-2.9-1.2c-0.7-0.8-1.1-1.9-1.1-3.3c0-1.4,0.3-2.5,1-3.3
				c0.7-0.8,1.6-1.2,2.8-1.2c1,0,1.8,0.4,2.4,1.1c0.6,0.7,0.9,1.7,0.9,2.9v0.6h-6.2c0,1.2,0.3,2.1,0.8,2.7c0.5,0.6,1.3,0.9,2.3,0.9
				c0.5,0,0.9,0,1.3-0.1c0.4-0.1,0.8-0.2,1.4-0.4V61c-0.5,0.2-0.9,0.4-1.4,0.4C151.1,61.6,150.6,61.6,150.1,61.6"/>
			<rect x="155.6" y="49" class="st3" width="0.8" height="12.4"/>
			<path class="st3" d="M162.4,53.3c-0.9,0-1.7,0.3-2.1,1c-0.5,0.7-0.7,1.6-0.7,2.9c0,2.5,1,3.7,2.9,3.7c1,0,1.7-0.3,2.2-0.9
				c0.5-0.6,0.7-1.5,0.7-2.8v-0.1c0-1.3-0.2-2.3-0.7-2.9C164.2,53.6,163.4,53.3,162.4,53.3 M162.4,52.6c0.6,0,1.2,0.1,1.6,0.3
				c0.5,0.2,0.9,0.6,1.2,1.2h0c0-0.7,0-1.3,0-2V49h0.8v12.4h-0.5l-0.2-1.3h-0.1c-0.7,1-1.6,1.5-2.8,1.5c-1.2,0-2.1-0.4-2.7-1.1
				c-0.6-0.7-0.9-1.8-0.9-3.3c0-1.5,0.3-2.6,0.9-3.4C160.3,53,161.2,52.6,162.4,52.6"/>
		</g>
		<g>
			<path class="st3" d="M5,43.6c-4.9-3.8-3.1-13.6-3.1-19c0-2.5-0.3-5.5,0.9-7.7c2.7-5.3,10.4-6.1,14.9-2.7c1.2,0.9,5.3,8.7,2.1,8.7
				c-2.3,0-5.7,1.1-5.7-1.9c0-3.7-5.5-3.8-5.5-0.1c0,2.8,0,5.7,0,8.5c0,2.3-0.6,5.6,0,7.8c0,2.4,3,3.1,4.8,1.8
				c1-0.7,0.7-2.3,0.7-3.4c0-0.5,0.3-3.6-0.2-3.6c-0.7,0-2.5,0.4-3.1,0c-1.3,0-1.4-5.5,0.1-5.5c2.8,0,5.7,0,8.6,0
				c2.1,0,1.2,3.8,1.2,5.2c0,2.8,0.5,6.6-0.8,9.2C17.2,46.2,9.5,47,5,43.6C4.1,42.9,5.9,44.3,5,43.6z"/>
			<path class="st3" d="M39.4,14.1c4.9,3.8,3.1,13.6,3.1,18.9c0,2.5,0.4,5.5-0.9,7.7c-2.7,5.2-10.4,6-14.8,2.6
				c-4.9-3.8-3.1-13.6-3.1-18.9c0-2.5-0.3-5.4,0.9-7.7C27.2,11.5,34.9,10.6,39.4,14.1C40.3,14.8,38.5,13.4,39.4,14.1z M30.3,20.5
				c0,1.6,0,3.2,0,4.8c0,3.5-0.9,8.3,0,11.7c0,3.3,5.5,3.3,5.5,0c0-1.6,0-3.3,0-4.9c0-3.9,0-7.8,0-11.7
				C35.8,17.1,30.3,17.2,30.3,20.5z"/>
			<path class="st3" d="M45.4,40.2c0-7.4,0-14.7,0-22.1c0-1.1-0.6-4.5,0.2-5.4c1.1-1.1,5.9-0.2,7.2-0.2c1.8,0,7-1,8.6,0
				c1.2,0,1.4,5.7-0.1,5.7c-3.1,0-6.1,0-9.2,0c-0.2,0-0.1,6.7-0.1,7.5c0,0.3,7.1,0.2,8,0.2c1.5,0,1.4,5.7,0.1,5.7
				c-1.7,1.1-6.6-1.4-8.1,0c-0.3,0.3-0.3,7.4,0,7.6c1.1,1,7.3,0,8.9,0c1.7,0,1.9,4.8,1,5.7c-1.2,1.2-6.7,0.2-8.2,0.2
				c-2.5,0-5.1,0-7.6,0C44.8,45.1,45.4,40.9,45.4,40.2z"/>
			<path class="st3" d="M80.5,43.1c-3.8,3.3-10,2.3-14.7,2.3c-1.7,0-1-4.8-1-5.7c0-8.5,0-17,0-25.5c0-3.2,3-2.2,5.6-2.2
				c5.5,0,11.8,0.6,12.7,7.4c0.5,3.7,0.1,7.7,0.1,11.5C83.3,35,84,40.2,80.5,43.1C78.8,44.6,82.4,41.6,80.5,43.1z M76.6,22.9
				c0-1.9,0.3-4.5-2.1-4.9c-1.9-0.3-2.8-0.6-2.8,1.2c0,5.2,0,10.4,0,15.6c0,1.6,0,3.2,0,4.7c0,0.4,4.9-0.1,4.9-3.2
				C76.6,31.9,76.6,27.4,76.6,22.9z"/>
			<path class="st3" d="M86,40.2c0-7.4,0-14.7,0-22.1c0-1.1-0.6-4.5,0.2-5.4c1.1-1.1,5.9-0.2,7.2-0.2c1.8,0,7-1,8.6,0
				c1.2,0,1.4,5.7-0.1,5.7c-3.1,0-6.1,0-9.2,0c-0.2,0-0.1,6.7-0.1,7.5c0,0.3,7.1,0.2,8,0.2c1.5,0,1.4,5.7,0.1,5.7
				c-1.7,1.1-6.6-1.4-8.1,0c-0.3,0.3-0.3,7.4,0,7.6c1.1,1,7.3,0,8.9,0c1.7,0,1.9,4.8,1,5.7c-1.2,1.2-6.7,0.2-8.2,0.2
				c-2.5,0-5.1,0-7.6,0C85.4,45.1,86,40.9,86,40.2z"/>
			<path class="st3" d="M124.1,17.6c-0.6,0.6-5.8,0-5.8,0.3c0,4.4,0,8.9,0,13.4c0,3.1,0,6.1,0,9.2c0,0.8,0.5,3.5,0,4.2
				c0,1.2-5.3,1.1-6,0.8c-1.1,0-0.7-2.3-0.7-2.9c0-6,0-12,0-18c0-2.1,0-4.1,0-6.2c0-1-3.6-0.5-4.5-0.5c-2.4,0-1.6-3-1.6-4.8
				c0-1.6,2.8-1,3.8-1c4.7,0,9.4,0,14.2,0C124.8,12.1,124.8,17,124.1,17.6z"/>
			<path class="st3" d="M127.2,40.2c0-7.4,0-14.7,0-22.1c0-1.1-0.6-4.5,0.2-5.4c1.1-1.1,5.9-0.2,7.2-0.2c1.8,0,7-1,8.6,0
				c1.2,0,1.4,5.7-0.1,5.7c-3.1,0-6.1,0-9.2,0c-0.2,0-0.1,6.7-0.1,7.5c0,0.3,7.1,0.2,8,0.2c1.5,0,1.4,5.7,0.1,5.7
				c-1.7,1.1-6.6-1.4-8.1,0c-0.3,0.3-0.3,7.4,0,7.6c1.1,1,7.3,0,8.9,0c1.7,0,1.9,4.8,1,5.7c-1.2,1.2-6.7,0.2-8.2,0.2
				c-2.5,0-5.1,0-7.6,0C126.6,45.1,127.2,40.9,127.2,40.2z"/>
			<path class="st3" d="M166.4,43.5c0,3.7-5.9,2.9-7,0.1c-2-4.8-4-9.6-6-14.4c0,3.8,0,7.7,0,11.6c0,4.4,0.3,4.8-4.4,4.8
				c-3.1,0-2.4-1.6-2.4-4.3c0-4.5,0-8.9,0-13.4c0-4.2,0-8.4,0-12.6c0-3.4,0.7-3.1,4.2-3.1c3.4,0,3.7,3.8,4.9,6.6
				c1.3,3.3,2.7,6.6,4,9.8c0-4.2,0-8.3,0-12.5c0-0.6-0.5-4,0.7-4c1-0.6,4.1,0,5.2,0C167.2,12.2,166.4,40.3,166.4,43.5z"/>
		</g>
	</g>
</g>
</svg>
