<?xml version="1.0" encoding="utf-8"?>
<!-- Generator: Adobe Illustrator 25.3.1, SVG Export Plug-In . SVG Version: 6.00 Build 0)  -->
<svg version="1.1" id="Laag_1" xmlns="http://www.w3.org/2000/svg" xmlns:xlink="http://www.w3.org/1999/xlink" x="0px" y="0px"
	 width="50.7px" height="42.5px" viewBox="0 0 50.7 42.5" style="enable-background:new 0 0 50.7 42.5;" xml:space="preserve">
<style type="text/css">
	.st0{fill:#98BF82;}
	.st1{fill:#1C3A2C;}
	.st2{fill:#E92A43;}
	.st3{fill:#1C3B2B;}
	.st4{fill:#FFFFD9;}
	.st5{fill:#F2F23D;}
</style>
<g>
	<path class="st2" d="M45.3,11.6c-3.9-3.3-8.2-4.1-13.2-2.7c-1.9,0.6-4.3,0.9-6.8,1c-2.6-0.1-4.9-0.5-6.8-1c-5-1.5-9.3-0.6-13.2,2.7
		c-6.4,5.4-5.6,13.7-2,19.6C8,38.7,14.6,41.9,25.3,42c0.1,0,0.2,0,0.2,0c10.4,0,17.1-3.3,21.7-10.8C50.9,25.3,51.7,17,45.3,11.6z"/>
	<path class="st1" d="M39.9,3.8l-0.1-0.4l-0.4,0.2c-5.2,3.1-10.2,4.2-11.7,4.5l3.5-7.3l-5.2,0l-1.5,7c-1.6-0.5-5.3-3.2-7.8-5
		c-1.2-0.9-2.3-1.6-2.8-2l-0.4-0.3l0,0.5c0,0.1,0,1.8,0.9,4c1.1,2.5,4.4,4.2,5.6,4.8c-1.4,0.9-5.3,4-4.3,8.9c0,0.2,0.2,0.3,0.3,0.3
		c0.3,0.1,0.6-0.2,1.3-1c1.3-1.5,3.7-4.4,7.1-4.7c5.3-0.5,6.5,3.7,7,5.5c0.2,0.7,0.3,0.9,0.5,1c0,0,0,0,0.1,0c0.1,0,0.2,0,0.3-0.2
		c1.2-1.5,1.7-3,1.4-4.6c-0.3-1.9-1.7-3.3-2.5-3.9c1.4-0.2,4.7-0.9,6.4-2.7C40.2,5.7,39.9,3.9,39.9,3.8z"/>
</g>
</svg>
